<svg width="35" height="35" viewBox="0 0 35 35" fill="none" xmlns="http://www.w3.org/2000/svg">
<path d="M5.83325 29.1666H5.33325V29.6666H5.83325V29.1666ZM13.4785 22.2285C13.6737 22.0333 13.6737 21.7167 13.4785 21.5214C13.2832 21.3261 12.9666 21.3261 12.7714 21.5214L13.4785 22.2285ZM5.33325 20.4166V29.1666H6.33325V20.4166H5.33325ZM5.83325 29.6666H14.5833V28.6666H5.83325V29.6666ZM6.18681 29.5202L13.4785 22.2285L12.7714 21.5214L5.4797 28.8131L6.18681 29.5202Z" fill="#222222"/>
<path d="M29.1667 5.83337H29.6667V5.33337H29.1667V5.83337ZM21.5215 12.7715C21.3263 12.9667 21.3263 13.2833 21.5215 13.4786C21.7168 13.6739 22.0334 13.6739 22.2286 13.4786L21.5215 12.7715ZM29.6667 14.5834V5.83337H28.6667V14.5834H29.6667ZM29.1667 5.33337H20.4167V6.33337H29.1667V5.33337ZM28.8132 5.47982L21.5215 12.7715L22.2286 13.4786L29.5203 6.18693L28.8132 5.47982Z" fill="#222222"/>
</svg>
